<svg xmlns="http://www.w3.org/2000/svg" xmlns:xlink="http://www.w3.org/1999/xlink" width="0" height="0" style="position:absolute">
	
		<symbol id="001-alarm-bell" viewBox="0 0 612 612">
			<path d="M269.442 595.309c10.35 10.35 22.373 15.355 36.391 15.355 14.36 0 26.205-5.17 36.063-15.355 9.844-10.18 15.022-22.039 15.022-36.057H254.42c0 14.018 5.007 26.035 15.022 36.057zM608.659 512.17c-23.911-35.25-41.882-73.072-54.083-112.854-12.173-39.682-23.015-97.162-32.723-172.279-5.648-43.742-23.555-80.645-43.406-104.506-9.865-11.867-21.112-22.601-34.055-32.053-25.449-18.59-46.077-27.38-70.117-34.389-3.333-15.692-11.41-28.634-24.367-39.062-12.757-10.271-27.38-15.692-44.076-15.692-16.361 0-31.048 5.342-43.734 15.692-12.693 10.349-20.706 23.37-24.04 39.062-24.04 7.009-44.781 15.642-70.452 34.389-12.721 9.295-24.046 20.022-34.054 32.053-19.708 23.698-37.416 60.765-43.071 104.506-9.702 75.117-20.849 132.498-33.05 172.279C45.258 438.998 27.444 476.82 3.675 512.17 1.403 515.555 0 518.844 0 522.52c0 3.006.634 5.699 2.336 8.684 3.64 6.367 9.018 9.68 16.361 9.68h574.94c7.344 0 12.686-3.34 16.36-9.68 1.332-3.006 2.002-6.012 2.002-9.018.001-3.676-1.203-6.868-3.34-10.016zm-556.57-8.348c20.029-34.389 35.229-72.154 45.743-112.52 10.527-40.436 20.086-93.857 29.375-159.593 8.077-57.132 34.019-93.031 66.441-114.521 23.007-15.243 42.694-23.221 65.779-28.377 8.305-1.859 13.69-9.345 13.69-17.693v-.669c0-17.722 15.022-32.053 32.715-32.053 18.363 0 32.722 14.36 32.722 32.053v.669c0 8.348 5.934 15.635 14.359 17.693 22.972 5.62 42.979 12.814 65.438 28.377 11.262 7.807 21.24 16.468 29.717 26.375 17.23 20.144 31.675 51.092 36.726 88.145 8.967 65.779 18.697 118.859 29.381 159.259 10.685 40.4 26.041 78.131 46.078 112.854H52.089z"></path>
		</symbol>
	
		<symbol id="002-communication" viewBox="0 0 489.7 489.7">
			<path d="M140 36.55c-24.9 0-45.2 20.3-45.2 45.2v179.8c0 24.9 20.3 45.2 45.2 45.2h202.6l57.1 66.1c3.5 4 8.4 6.3 13.7 6.3 10 0 18.2-8.1 18.2-18.1v-54.2h12.9c24.9 0 45.2-20.3 45.2-45.2V81.75c0-24.9-20.3-45.2-45.2-45.2H140zm325.1 45.2v179.8c0 11.4-9.3 20.7-20.7 20.7h-25.1c-6.8 0-12.3 5.5-12.3 12.3v49.3l-49.6-57.3c-2.3-2.7-5.7-4.2-9.3-4.2H140c-11.4 0-20.7-9.3-20.7-20.7V81.75c0-11.4 9.3-20.7 20.7-20.7h304.4c11.4 0 20.7 9.3 20.7 20.7z"></path><path d="M69.9 451.95c2.1.8 4.3 1.2 6.4 1.2 5.1 0 10.1-2.2 13.6-6.3l57.1-66.1h178.4c6.8 0 12.3-5.5 12.3-12.3s-5.5-12.3-12.3-12.3h-184c-3.6 0-6.9 1.5-9.3 4.2l-49.5 57.5v-49.3c0-6.8-5.5-12.3-12.3-12.3H45.2c-11.4 0-20.7-9.3-20.7-20.7v-179.8c0-11.4 9.3-20.7 20.7-20.7 6.8 0 12.3-5.5 12.3-12.3 0-6.8-5.5-12.2-12.3-12.2-24.9 0-45.2 20.3-45.2 45.2v179.8c0 24.9 20.3 45.2 45.2 45.2h12.9v54.2c0 7.7 4.6 14.4 11.8 17z"></path><circle cx="292.2" cy="175.95" r="14.6"></circle><circle cx="243.3" cy="175.95" r="14.6"></circle><circle cx="341.1" cy="175.95" r="14.6"></circle>
		</symbol>
	
		<symbol id="003-sheet" viewBox="0 0 45.057 45.057">
			<path d="M13.323 13.381h19.252c1.613 0 1.613-2.5 0-2.5H13.323c-1.612 0-1.612 2.5 0 2.5zM32.577 16.798H13.324c-1.612 0-1.612 2.5 0 2.5h19.253c1.611 0 1.611-2.5 0-2.5zM32.577 22.281H13.324c-1.612 0-1.612 2.5 0 2.5h19.253c1.611 0 1.611-2.5 0-2.5zM32.577 28.197H13.324c-1.612 0-1.612 2.5 0 2.5h19.253c1.611 0 1.611-2.5 0-2.5zM32.204 33.781H12.952c-1.612 0-1.612 2.5 0 2.5h19.252c1.613 0 1.613-2.5 0-2.5z"></path><path d="M33.431 0H5.179v45.057h34.699V6.251L33.431 0zm3.447 42.056H8.179V3h23.707v4.76h4.992v34.296z"></path>
		</symbol>
	
		<symbol id="004-building" viewBox="0 0 512 512">
			<path d="M381.247 230.014c0-6.218-5.059-11.277-11.277-11.277h-38.949c-6.218 0-11.277 5.059-11.277 11.277v25.078c0 6.218 5.059 11.277 11.277 11.277h38.949c6.218 0 11.277-5.059 11.277-11.277v-25.078zm-15 21.356h-31.502v-17.632h31.502v17.632zM450.44 230.014c0-6.218-5.059-11.277-11.277-11.277h-38.949c-6.218 0-11.277 5.059-11.277 11.277v25.078c0 6.218 5.059 11.277 11.277 11.277h38.949c6.218 0 11.277-5.059 11.277-11.277v-25.078zm-15 21.356h-31.502v-17.632h31.502v17.632zM381.247 302.804c0-6.218-5.059-11.277-11.277-11.277h-38.949c-6.218 0-11.277 5.059-11.277 11.277v25.078c0 6.218 5.059 11.277 11.277 11.277h38.949c6.218 0 11.277-5.059 11.277-11.277v-25.078zm-15 21.355h-31.502v-17.632h31.502v17.632zM450.44 302.804c0-6.218-5.059-11.277-11.277-11.277h-38.949c-6.218 0-11.277 5.059-11.277 11.277v25.078c0 6.218 5.059 11.277 11.277 11.277h38.949c6.218 0 11.277-5.059 11.277-11.277v-25.078zm-15 21.355h-31.502v-17.632h31.502v17.632zM369.97 353.517h-38.949c-6.218 0-11.277 5.059-11.277 11.277v25.078c0 6.218 5.059 11.277 11.277 11.277h38.949c6.218 0 11.277-5.059 11.277-11.277v-25.078c0-6.219-5.059-11.277-11.277-11.277zm-3.723 32.632h-31.502v-17.632h31.502v17.632zM450.44 364.794c0-6.218-5.059-11.277-11.277-11.277h-38.949c-6.218 0-11.277 5.059-11.277 11.277v25.078c0 6.218 5.059 11.277 11.277 11.277h38.949c6.218 0 11.277-5.059 11.277-11.277v-25.078zm-15 21.355h-31.502v-17.632h31.502v17.632zM400.214 412.84c-6.218 0-11.277 5.059-11.277 11.277v25.078c0 6.218 5.059 11.277 11.277 11.277h38.949c6.218 0 11.277-5.059 11.277-11.277v-25.078c0-6.218-5.059-11.277-11.277-11.277h-38.949zm35.226 32.632h-31.502V427.84h31.502v17.632zM79.96 107.937h34.078c7.561 0 13.712-6.151 13.712-13.713V48.222c0-7.561-6.151-13.712-13.712-13.712H79.96c-7.561 0-13.712 6.151-13.712 13.712v46.002c0 7.561 6.151 13.713 13.712 13.713zm1.288-58.427h31.502v43.427H81.248V49.51zM158.656 107.937h34.078c7.561 0 13.712-6.151 13.712-13.713V48.222c0-7.561-6.151-13.712-13.712-13.712h-34.078c-7.562 0-13.713 6.151-13.713 13.712v46.002c0 7.561 6.152 13.713 13.713 13.713zm1.287-58.427h31.503v43.427h-31.503V49.51zM237.352 107.937h34.078c7.561 0 13.712-6.151 13.712-13.713V48.222c0-7.561-6.151-13.712-13.712-13.712h-34.078c-7.562 0-13.713 6.151-13.713 13.712v46.002c0 7.561 6.152 13.713 13.713 13.713zm1.287-58.427h31.503v43.427h-31.503V49.51zM66.248 205.999c0 7.561 6.151 13.712 13.712 13.712h34.078c7.561 0 13.712-6.151 13.712-13.712v-46.002c0-7.561-6.151-13.712-13.712-13.712H79.96c-7.561 0-13.712 6.151-13.712 13.712v46.002zm15-44.715h31.502v43.427H81.248v-43.427zM144.943 205.999c0 7.561 6.151 13.712 13.713 13.712h34.078c7.561 0 13.712-6.151 13.712-13.712v-46.002c0-7.561-6.151-13.712-13.712-13.712h-34.078c-7.562 0-13.713 6.151-13.713 13.712v46.002zm15-44.715h31.503v43.427h-31.503v-43.427zM223.639 205.999c0 7.561 6.151 13.712 13.713 13.712h34.078c7.561 0 13.712-6.151 13.712-13.712v-46.002c0-7.561-6.151-13.712-13.712-13.712h-34.078c-7.562 0-13.713 6.151-13.713 13.712v46.002zm15-44.715h31.503v43.427h-31.503v-43.427zM66.248 317.773c0 7.561 6.151 13.712 13.712 13.712h34.078c7.561 0 13.712-6.151 13.712-13.712v-46.002c0-7.561-6.151-13.712-13.712-13.712H79.96c-7.561 0-13.712 6.151-13.712 13.712v46.002zm15-44.715h31.502v43.427H81.248v-43.427zM144.943 317.773c0 7.561 6.151 13.712 13.713 13.712h34.078c7.561 0 13.712-6.151 13.712-13.712v-46.002c0-7.561-6.151-13.712-13.712-13.712h-34.078c-7.562 0-13.713 6.151-13.713 13.712v46.002zm15-44.715h31.503v43.427h-31.503v-43.427zM223.639 317.773c0 7.561 6.151 13.712 13.713 13.712h34.078c7.561 0 13.712-6.151 13.712-13.712v-46.002c0-7.561-6.151-13.712-13.712-13.712h-34.078c-7.562 0-13.713 6.151-13.713 13.712v46.002zm15-44.715h31.503v43.427h-31.503v-43.427zM66.248 429.548c0 7.561 6.151 13.712 13.712 13.712h34.078c7.561 0 13.712-6.151 13.712-13.712v-46.002c0-7.561-6.151-13.712-13.712-13.712H79.96c-7.561 0-13.712 6.151-13.712 13.712v46.002zm15-44.715h31.502v43.427H81.248v-43.427zM223.639 429.548c0 7.561 6.151 13.712 13.713 13.712h34.078c7.561 0 13.712-6.151 13.712-13.712v-46.002c0-7.561-6.151-13.712-13.712-13.712h-34.078c-7.562 0-13.713 6.151-13.713 13.712v46.002zm15-44.715h31.503v43.427h-31.503v-43.427z"></path><path d="M504.5 469.739h-30.748V295.597a7.5 7.5 0 0 0-15 0v174.142h-80.387v-45.622c0-6.218-5.059-11.277-11.277-11.277h-29.125c-6.218 0-11.277 5.059-11.277 11.277v45.622h-15.254V205.54h144.814a2.51 2.51 0 0 1 2.506 2.511v57.573a7.5 7.5 0 0 0 15 0v-57.573c0-9.655-7.853-17.511-17.506-17.511h-37.242v-19.12c0-6.919-5.629-12.549-12.548-12.549h-46.623c-6.919 0-12.548 5.629-12.548 12.549v19.121h-35.852V25.012c0-12.167-9.895-22.064-22.058-22.064H60.306c-12.163 0-22.058 9.898-22.058 22.064v201.386a7.5 7.5 0 0 0 15 0V25.012c0-3.896 3.166-7.064 7.058-7.064h229.069c3.892 0 7.058 3.169 7.058 7.064v444.726h-89.986v-92.406a7.5 7.5 0 0 0-7.5-7.5h-46.503a7.5 7.5 0 0 0-7.5 7.5v92.406H53.248V256.557a7.5 7.5 0 0 0-15 0v213.181H7.5a7.5 7.5 0 0 0-7.5 7.5v24.314a7.5 7.5 0 0 0 7.5 7.5h497a7.5 7.5 0 0 0 7.5-7.5v-24.314a7.5 7.5 0 0 0-7.5-7.499zM362.284 173.871h41.72v16.669h-41.72v-16.669zM341.687 427.84h21.678v41.898h-21.678V427.84zm-181.744-43.007h31.503v84.906h-31.503v-84.906zM497 494.052H15v-9.314h482v9.314z"></path>
		</symbol>
	
		<symbol id="005-question" viewBox="0 0 295.82 349.99999">
			<path d="M154.871 99.785c-10.441-3.48-22.621 0-31.322 6.96s-13.921 17.401-13.921 29.582c0 5.22 3.48 8.701 8.701 8.701 5.22 0 8.701-3.48 8.701-8.701 0-5.22 1.74-12.181 6.96-15.661 5.22-3.48 10.441-5.22 17.401-3.48 8.701 1.74 13.921 8.701 15.661 15.661 1.74 8.701 0 15.661-6.96 20.882-13.921 10.441-20.882 26.102-20.882 41.763 0 5.22 3.48 8.701 8.701 8.701 5.22 0 8.701-3.48 6.96-8.701 0-10.441 6.96-20.882 15.661-27.842 12.181-10.441 17.401-24.362 13.921-38.283-3.481-15.661-15.661-26.102-29.582-29.582zM140.95 240.735c-1.74 1.74-1.74 5.22-1.74 6.96 0 1.74 0 3.48 1.74 5.22 1.74 1.74 5.22 3.48 6.96 3.48 1.74 0 5.22-1.74 5.22-3.48 1.74 0 3.48-3.48 3.48-5.22 0-3.48-1.74-5.22-3.48-6.96-3.48-3.481-8.7-3.481-12.18 0z"></path><path d="M49.635 69.916l94.838-54.953 68.249 33.681" fill="none"></path><path style="line-height:normal;font-variant-ligatures:normal;font-variant-position:normal;font-variant-caps:normal;font-variant-numeric:normal;font-variant-alternates:normal;font-feature-settings:normal;text-indent:0;text-align:start;text-decoration-line:none;text-decoration-style:solid;text-decoration-color:#000;text-transform:none;text-orientation:mixed;shape-padding:0;isolation:auto;mix-blend-mode:normal" d="M-.479-3.219V.777H-4v349.678h304.037V-3.219zm4.479 8h288.037v337.674H4z" color="#000" font-weight="400" font-family="sans-serif" white-space="normal" overflow="visible"></path>
		</symbol>
	
		<symbol id="006-house-outline" viewBox="0 0 611.997 611.998">
			<path d="M511.114 300.251c-9.94 0-17.638 7.663-17.638 17.651v241.105H368.401v-98.453c0-9.236-7.697-17.31-17.002-17.31h-90.435c-9.948 0-17.96 8.073-17.96 17.31v98.453h-124.76v-233.1c0-9.306-7.69-17.036-17.638-17.036-9.298 0-16.995 7.73-16.995 17.036v250.752c0 9.305 7.697 17.036 16.995 17.036h160.358c9.298 0 16.995-7.731 16.995-17.036v-98.454h55.801v98.454c0 9.305 7.697 17.036 17.639 17.036h159.715c9.299 0 16.995-7.731 16.995-17.036V317.903c0-9.988-7.696-17.652-16.995-17.652z"></path><path d="M607.003 314.003L467.819 174.225V78.919c0-9.921-8.019-17.583-17.96-17.583-9.305 0-17.001 7.663-17.001 17.583v60.345L318.046 23.774c-3.518-3.558-7.697-5.474-11.864-5.474-4.81 0-8.983 1.984-12.507 5.474L5.361 312.087c-6.917 6.91-7.375 17.994 0 24.357 6.411 7.389 17.454 6.91 24.371 0l276.45-275.793 275.807 278.393c2.873 2.874 7.054 4.516 12.507 4.516 4.81 0 8.976-1.642 12.507-4.516 6.417-6.431 6.896-18.062 0-25.041z"></path>
		</symbol>
	
		<symbol id="magnifying-glass-browser" viewBox="0 0 483.083 483.083">
			<path d="M332.74 315.35c30.883-33.433 50.15-78.2 50.15-127.5C382.89 84.433 298.74 0 195.04 0S7.19 84.433 7.19 187.85 91.34 375.7 195.04 375.7c42.217 0 81.033-13.883 112.483-37.4l139.683 139.683c3.4 3.4 7.65 5.1 11.9 5.1s8.783-1.7 11.9-5.1c6.517-6.517 6.517-17.283 0-24.083L332.74 315.35zM41.19 187.85C41.19 103.133 110.04 34 195.04 34c84.717 0 153.85 68.85 153.85 153.85S280.04 341.7 195.04 341.7 41.19 272.567 41.19 187.85z"></path>
		</symbol>
	
</svg>
